Coordinates
version=1
nRows=15
nColumns=46
inDegrees=yes

Units are S.I. units (second, meters, Newtons, ...)
Angles are in degrees.

endheader
time	pelvis_tilt	pelvis_list	pelvis_rotation	pelvis_tx	pelvis_ty	pelvis_tz	bb_angle	bb_tx	bb_ty	bb_tz	hip_flexion_r	hip_adduction_r	hip_rotation_r	knee_angle_r	knee_angle_r_beta	ankle_angle_r	subtalar_angle_r	mtp_angle_r	crank_angle_r	hip_flexion_l	hip_adduction_l	hip_rotation_l	knee_angle_l	knee_angle_l_beta	ankle_angle_l	subtalar_angle_l	mtp_angle_l	crank_angle_l	lumbar_extension	lumbar_bending	lumbar_rotation	arm_flex_r	arm_add_r	arm_rot_r	elbow_flex_r	pro_sup_r	wrist_flex_r	wrist_dev_r	arm_flex_l	arm_add_l	arm_rot_l	elbow_flex_l	pro_sup_l	wrist_flex_l	wrist_dev_l
      7.50000000	    -10.97192695	      2.71000917	      1.75020906	      0.09148775	      1.14676151	     -0.24156636	      0.00000000	      0.50000000	      0.00000000	      0.25000000	     36.26007755	    -10.09447052	    -10.86490225	     28.98117823	      0.50581698	      9.63142949	     11.69006756	      0.00000000	      0.00000000	     84.48953963	    -17.20421727	     -4.16444806	    113.39920095	      1.97918943	     19.84730629	     13.22969002	      0.00000000	      0.00000000	    -56.55418096	     -4.69898460	     -1.56647672	     89.51578378	    -16.98683548	     39.74969292	     37.26093273	     26.90862307	      0.00000000	      0.00000000	     89.71807511	     -1.77764623	     31.26568462	     35.96249705	     20.30289849	      0.00000000	      0.00000000
      7.50500000	    -11.03398803	      2.64799398	      1.74310270	      0.09154028	      1.14705656	     -0.24177236	      0.00000000	      0.50000000	      0.00000000	      0.25000000	     36.39367038	    -10.04739872	    -10.78042982	     28.97658918	      0.50573689	      9.48772600	     11.75596966	      0.00000000	      0.00000000	     84.24723236	    -17.31268127	     -4.20715903	    113.30224381	      1.97749720	     20.43149875	     13.68708235	      0.00000000	      0.00000000	    -56.50932394	     -4.61164798	     -1.49841719	     89.51130628	    -16.84516011	     39.39442262	     37.02713641	     27.68535088	      0.00000000	      0.00000000	     89.71968653	     -1.71355985	     30.87069101	     35.61149466	     21.47683587	      0.00000000	      0.00000000
      7.51000000	    -11.10250721	      2.57378003	      1.70986537	      0.09163611	      1.14734894	     -0.24189753	      0.00000000	      0.50000000	      0.00000000	      0.25000000	     36.52813099	     -9.96300595	    -10.66854474	     28.97822094	      0.50576537	      9.29303583	     11.68413566	      0.00000000	      0.00000000	     84.00484777	    -17.44136722	     -4.23038890	    113.19070058	      1.97555041	     21.06590071	     14.20009237	      0.00000000	      0.00000000	    -56.44715359	     -4.55542669	     -1.51526045	     89.52409865	    -16.73297203	     39.56717480	     36.51312301	     29.97124112	      0.00000000	      0.00000000	     89.71666798	     -1.96762315	     30.85614069	     35.14535191	     24.99123044	      0.00000000	      0.00000000
      7.51500000	    -11.15754412	      2.47895107	      1.77935819	      0.09172669	      1.14768520	     -0.24207488	      0.00000000	      0.50000000	      0.00000000	      0.25000000	     36.62054880	     -9.93413916	    -10.70654792	     28.98367314	      0.50586053	      9.14022212	     11.74882767	      0.00000000	      0.00000000	     83.77692643	    -17.45919742	     -4.20859665	    113.06272902	      1.97331688	     21.68460091	     14.62761081	      0.00000000	      0.00000000	    -56.41639608	     -4.43055580	     -1.44611423	     89.51498568	    -16.78983900	     39.84879456	     37.20983347	     26.59717878	      0.00000000	      0.00000000	     89.71842955	     -1.94889262	     31.22262817	     36.01741744	     20.05057853	      0.00000000	      0.00000000
      7.52000000	    -11.22930676	      2.39491361	      1.75634307	      0.09178233	      1.14784981	     -0.24223713	      0.00000000	      0.50000000	      0.00000000	      0.25000000	     36.76152459	     -9.85527080	    -10.61607640	     29.01152780	      0.50634668	      8.96696404	     11.71877475	      0.00000000	      0.00000000	     83.58145140	    -17.57970680	     -4.23387267	    112.96272753	      1.97157153	     22.30299566	     15.04646172	      0.00000000	      0.00000000	    -56.32876217	     -4.36632780	     -1.41438651	     89.52113472	    -16.54153455	     39.42457115	     36.57065218	     28.97694475	      0.00000000	      0.00000000	     89.71731157	     -1.90856628	     30.69640800	     35.19254092	     23.97426045	      0.00000000	      0.00000000
      7.52500000	    -11.26299472	      2.33475385	      1.75762016	      0.09189130	      1.14809839	     -0.24243908	      0.00000000	      0.50000000	      0.00000000	      0.25000000	     36.85305110	     -9.83419358	    -10.60573621	     29.03758271	      0.50680143	      8.82146643	     11.80260736	      0.00000000	      0.00000000	     83.34239128	    -17.68425793	     -4.27596965	    112.86368030	      1.96984283	     22.88048376	     15.53790911	      0.00000000	      0.00000000	    -56.29290351	     -4.30334176	     -1.35641376	     89.52447960	    -16.67743857	     39.86760135	     36.77301279	     28.72036962	      0.00000000	      0.00000000	     89.71911414	     -2.01880630	     31.17304859	     35.33452552	     23.26320764	      0.00000000	      0.00000000
      7.53000000	    -11.17850173	      2.18715985	      1.75193272	      0.09200739	      1.14846367	     -0.24255819	      0.00000000	      0.50000000	      0.00000000	      0.25000000	     36.76107043	     -9.69481119	    -10.60055326	     28.98528943	      0.50588874	      8.67309282	     11.83809318	      0.00000000	      0.00000000	     83.03318441	    -17.82226240	     -4.18590610	    112.79105646	      1.96857530	     23.52176782	     16.25370178	      0.00000000	      0.00000000	    -56.46278832	     -4.19211769	     -1.20459932	     89.49287058	    -16.56762731	     38.48557232	     37.18160172	     29.70166790	      0.00000000	      0.00000000	     89.71396203	     -1.82006922	     30.16471012	     35.48386735	     24.50507431	      0.00000000	      0.00000000
      7.53500000	    -11.37163091	      2.12230773	      1.78141974	      0.09200049	      1.14823383	     -0.24285833	      0.00000000	      0.50000000	      0.00000000	      0.25000000	     37.07526563	     -9.67334193	    -10.54169144	     29.10700369	      0.50801305	      8.52902470	     11.67756391	      0.00000000	      0.00000000	     83.05446305	    -17.86241938	     -4.24065643	    112.71740029	      1.96728976	     23.86963344	     16.17231103	      0.00000000	      0.00000000	    -56.13661510	     -4.11103803	     -1.15792301	     89.51391508	    -16.20396260	     38.47602874	     36.06444633	     30.76321752	      0.00000000	      0.00000000	     89.72295662	     -1.48025276	     29.85907281	     34.41794059	     25.82839238	      0.00000000	      0.00000000
      7.54000000	    -11.30975490	      2.04714021	      1.76746300	      0.09210480	      1.14845128	     -0.24302112	      0.00000000	      0.50000000	      0.00000000	      0.25000000	     37.07060822	     -9.62257251	    -10.52991219	     29.15653717	      0.50887757	      8.46294398	     11.78165994	      0.00000000	      0.00000000	     82.78409920	    -18.00263063	     -4.25738648	    112.65916752	      1.96627341	     24.41323457	     16.73529937	      0.00000000	      0.00000000	    -56.22169525	     -4.04557086	     -1.13000746	     89.50194096	    -16.12780093	     38.09795651	     36.32267130	     31.04486772	      0.00000000	      0.00000000	     89.72044740	     -1.53609081	     29.58180348	     34.62595607	     26.15735790	      0.00000000	      0.00000000
      7.54500000	    -11.55533724	      2.02104975	      1.76019802	      0.09215915	      1.14802265	     -0.24317465	      0.00000000	      0.50000000	      0.00000000	      0.25000000	     37.46547106	     -9.60774311	    -10.42555926	     29.30718384	      0.51150685	      8.35189084	     11.61691202	      0.00000000	      0.00000000	     82.89273734	    -18.07854370	     -4.32760454	    112.60810529	      1.96538220	     24.58649555	     16.74057492	      0.00000000	      0.00000000	    -55.85188508	     -4.03921501	     -1.21878109	     89.52770785	    -15.84645604	     38.58631240	     35.35220968	     32.42612260	      0.00000000	      0.00000000	     89.72285195	     -1.59902654	     29.70241515	     33.88229816	     28.06713357	      0.00000000	      0.00000000
      7.55000000	    -11.40107245	      1.89802332	      1.79755526	      0.09231428	      1.14832903	     -0.24335036	      0.00000000	      0.50000000	      0.00000000	      0.25000000	     37.29919968	     -9.54749043	    -10.57664538	     29.27828317	      0.51100244	      8.32425561	     11.77163104	      0.00000000	      0.00000000	     82.60704834	    -18.21727156	     -4.25849209	    112.58588116	      1.96499432	     24.90629996	     17.40625639	      0.00000000	      0.00000000	    -56.08661714	     -3.91892642	     -1.06689231	     89.50367847	    -15.97346885	     37.51627210	     36.09306343	     33.08221887	      0.00000000	      0.00000000	     89.71981334	     -1.50090226	     29.08685875	     34.27704784	     28.84821439	      0.00000000	      0.00000000
      7.55500000	    -11.63959007	      1.89398561	      1.86561836	      0.09229369	      1.14782182	     -0.24378330	      0.00000000	      0.50000000	      0.00000000	      0.25000000	     37.68417081	     -9.61389396	    -10.52445012	     29.44133047	      0.51384815	      8.33727915	     11.60859618	      0.00000000	      0.00000000	     82.77315479	    -18.18801803	     -4.35009305	    112.56482347	      1.96462679	     24.89941198	     17.14384551	      0.00000000	      0.00000000	    -55.65908975	     -3.85032080	     -1.15913013	     89.53410644	    -15.76206019	     38.73062007	     35.00450590	     32.97638916	      0.00000000	      0.00000000	     89.72756848	     -1.49488182	     29.81706592	     33.48481123	     28.55899218	      0.00000000	      0.00000000
      7.56000000	    -11.60784675	      1.83232812	      1.90538662	      0.09231985	      1.14782303	     -0.24400864	      0.00000000	      0.50000000	      0.00000000	      0.25000000	     37.71328007	     -9.59624159	    -10.56955291	     29.48748910	      0.51465377	      8.29217495	     11.59444366	      0.00000000	      0.00000000	     82.65813183	    -18.19929596	     -4.34594531	    112.54912757	      1.96435285	     24.95771820	     17.14361170	      0.00000000	      0.00000000	    -55.65716034	     -3.79199732	     -1.15828741	     89.53771442	    -15.99471724	     39.85655917	     36.34862407	     26.60262732	      0.00000000	      0.00000000	     89.72711839	     -1.70476118	     31.08206956	     35.29144343	     19.40678366	      0.00000000	      0.00000000
      7.56500000	    -11.56681803	      1.78733223	      1.99411039	      0.09238247	      1.14782680	     -0.24438408	      0.00000000	      0.50000000	      0.00000000	      0.25000000	     37.70642015	     -9.64161493	    -10.67684587	     29.50082769	      0.51488658	      8.33114705	     11.69185721	      0.00000000	      0.00000000	     82.55942712	    -18.19846236	     -4.35807297	    112.55757821	      1.96450034	     24.88878625	     17.13968117	      0.00000000	      0.00000000	    -55.66996258	     -3.69671189	     -1.06234766	     89.51993602	    -15.79211361	     38.42752750	     35.74069411	     29.56756381	      0.00000000	      0.00000000	     89.73430446	     -1.14156197	     29.98492060	     34.02891646	     24.16664482	      0.00000000	      0.00000000
      7.57000000	    -11.65880413	      1.72835946	      1.98816775	      0.09242498	      1.14751048	     -0.24442709	      0.00000000	      0.50000000	      0.00000000	      0.25000000	     37.88112878	     -9.55392341	    -10.58279667	     29.53810771	      0.51553723	      8.32081538	     11.47166118	      0.00000000	      0.00000000	     82.62965461	    -18.30233566	     -4.32623838	    112.58267274	      1.96493832	     24.81722012	     17.28920675	      0.00000000	      0.00000000	    -55.47616562	     -3.66261633	     -1.11165412	     89.54467162	    -15.90857920	     40.02873395	     36.05595697	     26.65760669	      0.00000000	      0.00000000	     89.73037030	     -1.61502484	     31.31515929	     35.05017561	     19.48821393	      0.00000000	      0.00000000
